<?xml version="1.0" encoding="iso-8859-1"?>
<!-- Generator: Adobe Illustrator 18.0.0, SVG Export Plug-In . SVG Version: 6.00 Build 0)  -->
<!DOCTYPE svg PUBLIC "-//W3C//DTD SVG 1.1//EN" "http://www.w3.org/Graphics/SVG/1.1/DTD/svg11.dtd">
<svg version="1.1" id="Capa_1" xmlns="http://www.w3.org/2000/svg" xmlns:xlink="http://www.w3.org/1999/xlink" x="0px" y="0px"
	 viewBox="0 0 446.389 446.389" style="enable-background:new 0 0 446.389 446.389;" xml:space="preserve">
<path d="M431.555,171.557L228.993,5.554c-3.374-2.771-8.24-2.771-11.614,0l-88.784,72.77V63.331c0-10.966-8.89-19.855-19.856-19.855
	H53.876c-10.966,0-19.855,8.89-19.855,19.855v92.501l-19.179,15.719C5.447,179.25,0,190.756,0,202.902v218.109
	c0,12.097,9.806,21.902,21.902,21.902h132.771V313.203c0-22.337,18.107-40.445,40.445-40.445h56.138
	c22.337,0,40.445,18.108,40.445,40.445v129.711h132.78c12.1,0,21.909-9.809,21.909-21.908V202.902
	C446.389,190.759,440.943,179.251,431.555,171.557z"/>
<g>
</g>
<g>
</g>
<g>
</g>
<g>
</g>
<g>
</g>
<g>
</g>
<g>
</g>
<g>
</g>
<g>
</g>
<g>
</g>
<g>
</g>
<g>
</g>
<g>
</g>
<g>
</g>
<g>
</g>
</svg>
